<?xml version="1.0" encoding="utf-8"?>
<!-- Generator: Adobe Illustrator 22.1.0, SVG Export Plug-In . SVG Version: 6.00 Build 0)  -->
<svg version="1.1" id="Livello_1" xmlns="http://www.w3.org/2000/svg" xmlns:xlink="http://www.w3.org/1999/xlink" x="0px" y="0px"
	 viewBox="0 0 362 362" style="enable-background:new 0 0 362 362;" xml:space="preserve">
<style type="text/css">
	.st0{clip-path:url(#SVGID_2_);}
	.st1{fill:#73C2BE;}
	.st2{fill:#78C0E0;}
	.st3{fill:#9D68A3;}
	.st4{fill:#ED8478;}
	.st5{fill:#01A9F3;}
	.st6{fill:#E33E2B;}
	.st7{fill:#9CFFFA;enable-background:new    ;}
	.st8{fill:#B9E7FB;enable-background:new    ;}
	.st9{fill:#C09EC4;}
	.st10{fill:#FFFFFF;stroke:#FFFFFF;stroke-width:4.089;stroke-miterlimit:10;}
	.st11{clip-path:url(#SVGID_4_);}
	.st12{fill:#FFFFFF;}
	.st13{clip-path:url(#SVGID_6_);}
	.st14{fill:#505052;}
</style>
<g>
	<g>
		<defs>
			<path id="SVGID_1_" d="M315.1,228.7l-93,93c-22.7,22.7-59.6,22.7-82.3,0l-93-93c-22.7-22.7-22.7-59.6,0-82.3l93-93
				c22.7-22.7,59.6-22.7,82.3,0l93,93C337.8,169.1,337.8,206,315.1,228.7z"/>
		</defs>
		<clipPath id="SVGID_2_">
			<use xlink:href="#SVGID_1_"  style="overflow:visible;"/>
		</clipPath>
		<g class="st0">
			
				<rect x="139.6" y="146.2" transform="matrix(0.7071 -0.7071 0.7071 0.7071 -79.6286 182.9093)" class="st1" width="82.7" height="82.7"/>
			
				<rect x="81.2" y="204.6" transform="matrix(0.7071 -0.7071 0.7071 0.7071 -138.0307 158.6808)" class="st2" width="82.7" height="82.7"/>
			
				<rect x="198.1" y="87.7" transform="matrix(0.7071 -0.7071 0.7071 0.7071 -21.1263 207.0964)" class="st3" width="82.7" height="82.7"/>
			
				<rect x="198.1" y="204.6" transform="matrix(0.7071 -0.7071 0.7071 0.7071 -103.7863 241.3408)" class="st4" width="82.7" height="82.7"/>
			
				<rect x="139.6" y="263.1" transform="matrix(0.7071 -0.7071 0.7071 0.7071 -162.2885 217.1537)" class="st5" width="82.7" height="82.7"/>
			
				<rect x="256.5" y="146.2" transform="matrix(0.7071 -0.7071 0.7071 0.7071 -45.3841 265.5693)" class="st6" width="82.7" height="82.7"/>
			
				<rect x="81.2" y="87.7" transform="matrix(0.7071 -0.7071 0.7071 0.7071 -55.3707 124.4364)" class="st7" width="82.7" height="82.7"/>
			
				<rect x="22.7" y="146.2" transform="matrix(0.7071 -0.7071 0.7071 0.7071 -113.8729 100.2493)" class="st8" width="82.7" height="82.7"/>
			
				<rect x="139.6" y="29.3" transform="matrix(0.7071 -0.7071 0.7071 0.7071 3.0314 148.6648)" class="st9" width="82.7" height="82.7"/>
		</g>
	</g>
</g>
<g>
	<path id="Fill-29_1_" class="st10" d="M181,105.6c-17.7,0-34.2,5.7-46.6,16c-12.9,10.8-20.4,25.4-21.7,42.4
		c-0.2,3.2,1.6,6.1,4.5,7.4c1,0.4,2,0.7,3.1,0.7h121.4c1.3,0,2.5-0.3,3.7-0.9c2.6-1.4,4.1-4.2,3.9-7.2c-1.2-17-8.7-31.6-21.6-42.4
		C215.2,111.2,198.7,105.6,181,105.6 M181,113.1c16.3,0,31,5.2,41.8,14.2c10.8,9,17.8,21.7,19,37.2l0,0H120.3l0,0
		c1.1-15.5,8.2-28.2,19-37.2C150,118.3,164.7,113.1,181,113.1"/>
	<path id="Fill-31_1_" class="st10" d="M237.4,229.8L237.4,229.8H124.6c-6.6,0-11.9,5.3-11.9,11.7c0,11.1,9.2,20.1,20.6,20.1h95.5
		c11.3,0,20.6-9,20.6-20.1C249.3,235.1,244,229.9,237.4,229.8 M237.4,237.4c2.4,0,4.3,1.9,4.3,4.2c0,6.9-5.8,12.5-13,12.6h-95.4
		c-7.2,0-13-5.6-13-12.6c0-2.3,1.9-4.2,4.3-4.2H237.4"/>
	<path id="Fill-33_1_" class="st10" d="M196.7,198.2l10.2,10.1c2.5,2.5,5.9,3.9,9.5,3.9c3.6,0,7-1.4,9.5-3.9l10.2-10.1
		c1-1,2.5-1.6,3.9-1.6s2.9,0.6,3.9,1.6l9,9c1.5,1.5,4,1.5,5.6,0c1.5-1.5,1.5-4,0-5.5l-9-9c-2.5-2.5-5.9-3.9-9.5-3.9s-7,1.4-9.5,3.9
		l-10.2,10.1c-1.1,1-2.4,1.6-3.9,1.6c-1.5,0-2.9-0.6-3.9-1.6l-10.2-10.1c-2.5-2.5-5.9-3.9-9.5-3.9c-3.6,0-7,1.4-9.5,3.9l-1.2,1.1
		l-7.9,7.8l-1.2,1.1c-1.1,1-2.4,1.6-3.9,1.6c-1.5,0-2.9-0.6-3.9-1.6l-10.2-10.1c-2.5-2.5-5.9-3.9-9.5-3.9c-3.6,0-7,1.4-9.5,3.9
		l-10.2,10.1c-1.1,1-2.4,1.6-3.9,1.6c-1.5,0-2.9-0.6-3.9-1.6l-9-9c-1.5-1.5-4-1.5-5.6,0c-0.8,0.8-1.2,1.8-1.2,2.8c0,1,0.4,2,1.2,2.8
		l9,9c2.5,2.5,5.9,3.9,9.5,3.9c3.6,0,7-1.4,9.5-3.9l10.2-10.1c1.1-1,2.4-1.6,3.9-1.6s2.9,0.6,3.9,1.6l10.2,10.1
		c2.5,2.5,5.9,3.9,9.5,3.9s7-1.4,9.5-3.9l1.2-1.1l9-9c1.1-1,2.4-1.6,3.9-1.6C192.8,196.6,195.3,196.6,196.7,198.2z"/>
</g>
<g>
	<g>
		<defs>
			<path id="SVGID_3_" d="M309-309.8l-93,93c-22.7,22.7-59.6,22.7-82.3,0l-93-93c-22.7-22.7-22.7-59.6,0-82.3l93-93
				c22.7-22.7,59.6-22.7,82.3,0l93,93C331.7-369.4,331.7-332.5,309-309.8z"/>
		</defs>
		<clipPath id="SVGID_4_">
			<use xlink:href="#SVGID_3_"  style="overflow:visible;"/>
		</clipPath>
		<g class="st11">
			
				<rect x="133.5" y="-392.2" transform="matrix(0.7071 -0.7071 0.7071 0.7071 299.3295 20.8488)" class="st1" width="82.7" height="82.7"/>
			
				<rect x="75" y="-333.9" transform="matrix(0.7071 -0.7071 0.7071 0.7071 240.9273 -3.3797)" class="st2" width="82.7" height="82.7"/>
			
				<rect x="191.9" y="-450.8" transform="matrix(0.7071 -0.7071 0.7071 0.7071 357.8317 45.0359)" class="st3" width="82.7" height="82.7"/>
			
				<rect x="191.9" y="-333.9" transform="matrix(0.7071 -0.7071 0.7071 0.7071 275.1717 79.2803)" class="st4" width="82.7" height="82.7"/>
			
				<rect x="133.5" y="-275.3" transform="matrix(0.7071 -0.7071 0.7071 0.7071 216.6696 55.0932)" class="st5" width="82.7" height="82.7"/>
			
				<rect x="250.4" y="-392.3" transform="matrix(0.7071 -0.7071 0.7071 0.7071 333.5739 103.5088)" class="st6" width="82.7" height="82.7"/>
			
				<rect x="75" y="-450.8" transform="matrix(0.7071 -0.7071 0.7071 0.7071 323.5873 -37.6241)" class="st7" width="82.7" height="82.7"/>
			
				<rect x="16.6" y="-392.2" transform="matrix(0.7071 -0.7071 0.7071 0.7071 265.0851 -61.8112)" class="st8" width="82.7" height="82.7"/>
			
				<rect x="133.5" y="-509.1" transform="matrix(0.7071 -0.7071 0.7071 0.7071 381.9895 -13.3957)" class="st9" width="82.7" height="82.7"/>
		</g>
	</g>
</g>
<path class="st12" d="M591.5-275.6h-21.3v-94.5c0-11.9-3.5-22.1-10.3-30.5s-15.9-12.7-27-12.7c-11.3,0-21.1,3.8-29.4,11.1
	c-8.1,7.3-12.2,16.5-12.2,27.5v99.1h-21.6v-99.1c0-11.1-4.1-20.2-12.4-27.5c-8.1-7.3-17.8-11.1-29.2-11.1c-11.1,0-20,4.3-26.7,12.7
	c-6.7,8.4-10,18.4-10,30.5v94.5h-21.3v-92.1c0-19.2,5.4-34.8,16.5-46.4c10.3-11.1,23.8-17.3,40.5-18.6c22.4-1.9,40.2,7.8,53.5,28.6
	c13.2-20.8,31.1-30.5,53.5-28.6c16.7,1.3,30.2,7.6,40.8,18.6c11.1,11.6,16.7,27.3,16.7,46.4L591.5-275.6L591.5-275.6z"/>
<path class="st12" d="M613.1-353.9v-129.9h20.2v77.8c15.1-17.6,34-26.5,56.7-27.3c22.1-0.8,41.3,6.8,57.2,23
	c16.2,16.2,24.3,35.4,24.3,57.8c0,21.6-7.6,40.2-22.4,55.9c-14.8,15.7-33.2,23.8-54.5,24.6c-22.1,0.8-41.3-7-57.8-23.2
	c-16.5-16.2-24.3-35.4-23.8-57.5L613.1-353.9L613.1-353.9z M734.6-311.5c11.1-12.1,16.5-26.2,16.2-42.7c-0.3-16.2-6.2-30-17.8-41.6
	c-11.3-11.6-25.1-17.5-41.6-17.5c-15.7,0-29.2,5.7-40.2,17.3s-17,25.4-17.3,41.6c-0.5,17,5.1,31.9,17.3,44.6
	c12.2,12.4,26.5,18.4,43.2,17.6C710.3-293.2,723.6-299.4,734.6-311.5z"/>
<path class="st12" d="M925.5-341.8c0,20-6.5,36.7-19.4,50c-12.7,13.2-28.9,20-48.6,20s-35.9-6.8-48.9-20c-12.7-13.2-19.2-30-19.2-50
	v-87.7h20.8v90.2c0,13,4.6,24,14,33.5c9.5,9.2,20.5,13.8,33.2,13.8s23.5-4.6,32.9-13.8c9.5-9.5,14.3-20.5,14.3-33.5v-90.2h20.8v87.7
	H925.5z"/>
<path class="st12" d="M968.5-275.6h-21.6v-153.9h19.2v21.9c4.3-8.4,10.8-14.6,19.2-19.2c7.8-4.1,15.7-5.9,23.8-5.7v20.5
	c-9.5,0.3-17.3,3-23.2,7.8c-5.9,4.9-10,9.2-12.2,12.7c-3.5,5.9-5.1,13.8-5.1,23.8v92.1H968.5z"/>
<path class="st12" d="M1183.1-282.9c0,19.4-8.1,35.6-24,48.3c-15.9,12.7-34,18.9-54.5,18.1c-18.4-0.8-34.3-6.2-47.5-16.7
	c-12.7-10-21.1-23-25.4-38.6h20c3,10.5,10,19.7,20.5,27.3c10.5,7.8,22.1,11.6,34.8,11.6c15.1-0.3,28.1-5.4,39.2-15.9
	c11.1-10.3,16.7-22.7,16.7-37v-14.7c-15.1,17.3-34,26.5-56.7,27.3c-22.1,0.8-41.3-7-57.2-23c-15.9-16.2-24-35.6-24-58.1
	c0-21.6,7.3-40.2,22.1-55.9c14.8-15.7,33.2-23.8,54.5-24.6c22.1-0.5,41.3,7.3,57.5,23.5c16.5,15.9,24.3,35.1,24,57.2V-282.9z
	 M1145-310.7c11.1-11.6,17-25.4,17.3-41.6c0.5-17-5.1-31.6-17.3-44.3c-11.9-12.7-26.2-18.6-43.2-17.8c-15.9,0.8-29.2,7.3-40.2,19.4
	c-11.1,12.1-16.5,26.2-16.2,42.4c0.3,16.5,6.2,30.2,17.8,41.9c11.6,11.7,25.4,17.3,41.6,17.3C1120.7-293.4,1134-299.1,1145-310.7z"
	/>
<path class="st12" d="M1361.8-359.5c1.6,17.3-1.9,33.4-10.5,47.9s-20.4,25.1-35.5,32.2c-19.1,8.9-39.2,9.6-60.4,2
	c-21.3-7.9-36.6-21.5-45.8-41.3c-9.9-20.7-10.7-42.3-2.2-64.1c8.7-22.2,23.4-37.5,44.9-45.6c19.3-7.2,39-6.8,59.2,1.3
	c19.6,8.1,33.3,20.8,41.2,38.3l4.5,10.1l-126.1,56.6c7.8,13.4,19,22.5,33.7,26.9s29.1,3.5,43.3-3.2c22.1-10.2,33.2-27.6,33.7-52.1
	L1361.8-359.5z M1331.1-387.8c-8.6-11.8-19.5-19.7-32.7-23.5c-13.3-3.8-26.7-2.8-40.4,3c-13.7,5.8-23.6,15.3-30.1,28
	c-6.4,12.7-7.7,26.3-4.5,40.8L1331.1-387.8z"/>
<path class="st12" d="M1402.3-275.6h-21.6v-153.9h19.2v21.9c4.3-8.4,10.8-14.6,19.2-19.2c7.8-4.1,15.7-5.9,23.8-5.7v20.5
	c-9.5,0.3-17.3,3-23.2,7.8c-5.9,4.9-10,9.2-12.2,12.7c-3.5,5.9-5.1,13.8-5.1,23.8v92.1H1402.3z"/>
<g>
	<path id="Fill-29_3_" class="st10" d="M174.9-432.9c-17.7,0-34.2,5.7-46.6,16c-12.9,10.8-20.4,25.4-21.7,42.4
		c-0.2,3.2,1.6,6.1,4.5,7.4c1,0.4,2,0.7,3.1,0.7h121.4c1.3,0,2.5-0.3,3.7-0.9c2.6-1.4,4.1-4.2,3.9-7.2c-1.2-17-8.7-31.6-21.6-42.4
		C209.1-427.2,192.5-432.9,174.9-432.9 M174.9-425.4c16.3,0,31,5.2,41.8,14.2c10.8,9,17.8,21.7,19,37.2l0,0H114.2l0,0
		c1.1-15.5,8.2-28.2,19-37.2C143.9-420.2,158.6-425.4,174.9-425.4"/>
	<path id="Fill-31_3_" class="st10" d="M231.3-308.6L231.3-308.6H118.5c-6.6,0-11.9,5.3-11.9,11.7c0,11.1,9.2,20.1,20.6,20.1h95.5
		c11.3,0,20.6-9,20.6-20.1C243.1-303.4,237.8-308.6,231.3-308.6 M231.2-301.1c2.4,0,4.3,1.9,4.3,4.2c0,6.9-5.8,12.5-13,12.6h-95.4
		c-7.2,0-13-5.6-13-12.6c0-2.3,1.9-4.2,4.3-4.2H231.2"/>
	<path id="Fill-33_3_" class="st10" d="M190.6-340.3l10.2,10.1c2.5,2.5,5.9,3.9,9.5,3.9c3.6,0,7-1.4,9.5-3.9l10.2-10.1
		c1-1,2.5-1.6,3.9-1.6s2.9,0.6,3.9,1.6l9,9c1.5,1.5,4,1.5,5.6,0c1.5-1.5,1.5-4,0-5.5l-9-9c-2.5-2.5-5.9-3.9-9.5-3.9s-7,1.4-9.5,3.9
		l-10.2,10.1c-1.1,1-2.4,1.6-3.9,1.6c-1.5,0-2.9-0.6-3.9-1.6l-10.2-10.1c-2.5-2.5-5.9-3.9-9.5-3.9c-3.6,0-7,1.4-9.5,3.9l-1.2,1.1
		l-7.9,7.8l-1.2,1.1c-1.1,1-2.4,1.6-3.9,1.6c-1.5,0-2.9-0.6-3.9-1.6l-10.2-10.1c-2.5-2.5-5.9-3.9-9.5-3.9c-3.6,0-7,1.4-9.5,3.9
		l-10.2,10.1c-1.1,1-2.4,1.6-3.9,1.6c-1.5,0-2.9-0.6-3.9-1.6l-9-9c-1.5-1.5-4-1.5-5.6,0c-0.8,0.8-1.2,1.8-1.2,2.8c0,1,0.4,2,1.2,2.8
		l9,9c2.5,2.5,5.9,3.9,9.5,3.9c3.6,0,7-1.4,9.5-3.9l10.2-10.1c1.1-1,2.4-1.6,3.9-1.6c1.5,0,2.9,0.6,3.9,1.6l10.2,10.1
		c2.5,2.5,5.9,3.9,9.5,3.9s7-1.4,9.5-3.9l1.2-1.1l9-9c1.1-1,2.4-1.6,3.9-1.6C186.7-341.9,189.1-341.8,190.6-340.3z"/>
</g>
<circle class="st5" cx="1463.4" cy="-296.1" r="20.6"/>
<g>
	<g>
		<defs>
			<path id="SVGID_5_" d="M309-788.2l-93,93c-22.7,22.7-59.6,22.7-82.3,0l-93-93c-22.7-22.7-22.7-59.6,0-82.3l93-93
				c22.7-22.7,59.6-22.7,82.3,0l93,93C331.7-847.8,331.7-810.9,309-788.2z"/>
		</defs>
		<clipPath id="SVGID_6_">
			<use xlink:href="#SVGID_5_"  style="overflow:visible;"/>
		</clipPath>
		<g class="st13">
			
				<rect x="133.5" y="-870.7" transform="matrix(0.7071 -0.7071 0.7071 0.7071 637.6631 -119.2936)" class="st1" width="82.7" height="82.7"/>
			
				<rect x="75" y="-812.3" transform="matrix(0.7071 -0.7071 0.7071 0.7071 579.261 -143.5221)" class="st2" width="82.7" height="82.7"/>
			
				<rect x="191.9" y="-929.2" transform="matrix(0.7071 -0.7071 0.7071 0.7071 696.1654 -95.1065)" class="st3" width="82.7" height="82.7"/>
			
				<rect x="191.9" y="-812.3" transform="matrix(0.7071 -0.7071 0.7071 0.7071 613.5054 -60.8621)" class="st4" width="82.7" height="82.7"/>
			
				<rect x="133.5" y="-753.8" transform="matrix(0.7071 -0.7071 0.7071 0.7071 555.0032 -85.0492)" class="st5" width="82.7" height="82.7"/>
			
				<rect x="250.4" y="-870.7" transform="matrix(0.7071 -0.7071 0.7071 0.7071 671.9076 -36.6336)" class="st6" width="82.7" height="82.7"/>
			
				<rect x="75" y="-929.2" transform="matrix(0.7071 -0.7071 0.7071 0.7071 661.921 -177.7665)" class="st7" width="82.7" height="82.7"/>
			
				<rect x="16.6" y="-870.7" transform="matrix(0.7071 -0.7071 0.7071 0.7071 603.4188 -201.9536)" class="st8" width="82.7" height="82.7"/>
			
				<rect x="133.5" y="-987.6" transform="matrix(0.7071 -0.7071 0.7071 0.7071 720.3232 -153.5381)" class="st9" width="82.7" height="82.7"/>
		</g>
	</g>
</g>
<path class="st14" d="M591.5-754h-21.3v-94.5c0-11.9-3.5-22.1-10.3-30.5c-6.8-8.4-15.9-12.7-27-12.7c-11.3,0-21.1,3.8-29.4,11.1
	c-8.1,7.3-12.2,16.5-12.2,27.5v99.1h-21.6v-99.1c0-11.1-4.1-20.2-12.4-27.5c-8.1-7.3-17.8-11.1-29.2-11.1c-11.1,0-20,4.3-26.7,12.7
	c-6.7,8.4-10,18.4-10,30.5v94.5h-21.3v-92.1c0-19.2,5.4-34.8,16.5-46.4c10.3-11.1,23.8-17.3,40.5-18.6c22.4-1.9,40.2,7.8,53.5,28.6
	c13.2-20.8,31.1-30.5,53.5-28.6c16.7,1.3,30.2,7.6,40.8,18.6c11.1,11.6,16.7,27.3,16.7,46.4L591.5-754L591.5-754z"/>
<path class="st14" d="M613.1-832.3v-129.9h20.2v77.8c15.1-17.6,34-26.5,56.7-27.3c22.1-0.8,41.3,6.8,57.2,23
	c16.2,16.2,24.3,35.4,24.3,57.8c0,21.6-7.6,40.2-22.4,55.9c-14.8,15.7-33.2,23.8-54.5,24.6c-22.1,0.8-41.3-7-57.8-23.2
	c-16.5-16.2-24.3-35.4-23.8-57.5L613.1-832.3L613.1-832.3z M734.6-789.9c11.1-12.1,16.5-26.2,16.2-42.7c-0.3-16.2-6.2-30-17.8-41.6
	c-11.3-11.6-25.1-17.5-41.6-17.5c-15.7,0-29.2,5.7-40.2,17.3c-11,11.6-17,25.4-17.3,41.6c-0.5,17,5.1,31.9,17.3,44.6
	c12.2,12.4,26.5,18.4,43.2,17.6C710.3-771.6,723.6-777.8,734.6-789.9z"/>
<path class="st14" d="M925.5-820.2c0,20-6.5,36.7-19.4,50c-12.7,13.2-28.9,20-48.6,20s-35.9-6.8-48.9-20c-12.7-13.2-19.2-30-19.2-50
	v-87.7h20.8v90.2c0,13,4.6,24,14,33.5c9.5,9.2,20.5,13.8,33.2,13.8s23.5-4.6,32.9-13.8c9.5-9.5,14.3-20.5,14.3-33.5v-90.2h20.8v87.7
	H925.5z"/>
<path class="st14" d="M968.5-754h-21.6v-153.9h19.2v21.9c4.3-8.4,10.8-14.6,19.2-19.2c7.8-4.1,15.7-5.9,23.8-5.7v20.5
	c-9.5,0.3-17.3,3-23.2,7.8c-5.9,4.9-10,9.2-12.2,12.7c-3.5,5.9-5.1,13.8-5.1,23.8v92.1H968.5z"/>
<path class="st14" d="M1183.1-761.3c0,19.4-8.1,35.6-24,48.3s-34,18.9-54.5,18.1c-18.4-0.8-34.3-6.2-47.5-16.7
	c-12.7-10-21.1-23-25.4-38.6h20c3,10.5,10,19.7,20.5,27.3c10.5,7.8,22.1,11.6,34.8,11.6c15.1-0.3,28.1-5.4,39.2-15.9
	c11.1-10.3,16.7-22.7,16.7-37v-14.7c-15.1,17.3-34,26.5-56.7,27.3c-22.1,0.8-41.3-7-57.2-23c-15.9-16.2-24-35.6-24-58.1
	c0-21.6,7.3-40.2,22.1-55.9c14.8-15.7,33.2-23.8,54.5-24.6c22.1-0.5,41.3,7.3,57.5,23.5c16.5,15.9,24.3,35.1,24,57.2V-761.3z
	 M1145-789.1c11.1-11.6,17-25.4,17.3-41.6c0.5-17-5.1-31.6-17.3-44.3c-11.9-12.7-26.2-18.6-43.2-17.8c-15.9,0.8-29.2,7.3-40.2,19.4
	c-11.1,12.1-16.5,26.2-16.2,42.4c0.3,16.5,6.2,30.2,17.8,41.9s25.4,17.3,41.6,17.3C1120.7-771.8,1134-777.5,1145-789.1z"/>
<path class="st14" d="M1361.8-837.9c1.6,17.3-1.9,33.4-10.5,47.9s-20.4,25.1-35.5,32.2c-19.1,8.9-39.2,9.6-60.4,2
	c-21.3-7.9-36.6-21.5-45.8-41.3c-9.9-20.7-10.7-42.3-2.2-64.1c8.7-22.2,23.4-37.5,44.9-45.6c19.3-7.2,39-6.8,59.2,1.3
	c19.6,8.1,33.3,20.8,41.2,38.3l4.5,10.1l-126.1,56.6c7.8,13.4,19,22.5,33.7,26.9c14.7,4.4,29.1,3.5,43.3-3.2
	c22.1-10.2,33.2-27.6,33.7-52.1L1361.8-837.9z M1331.1-866.2c-8.6-11.8-19.5-19.7-32.7-23.5c-13.3-3.8-26.7-2.8-40.4,3
	c-13.7,5.8-23.6,15.3-30.1,28c-6.4,12.7-7.7,26.3-4.5,40.8L1331.1-866.2z"/>
<path class="st14" d="M1402.3-754h-21.6v-153.9h19.2v21.9c4.3-8.4,10.8-14.6,19.2-19.2c7.8-4.1,15.7-5.9,23.8-5.7v20.5
	c-9.5,0.3-17.3,3-23.2,7.8c-5.9,4.9-10,9.2-12.2,12.7c-3.5,5.9-5.1,13.8-5.1,23.8v92.1H1402.3z"/>
<g>
	<path id="Fill-29_2_" class="st10" d="M174.9-911.4c-17.7,0-34.2,5.7-46.6,16c-12.9,10.8-20.4,25.4-21.7,42.4
		c-0.2,3.2,1.6,6.1,4.5,7.4c1,0.4,2,0.7,3.1,0.7h121.4c1.3,0,2.5-0.3,3.7-0.9c2.6-1.4,4.1-4.2,3.9-7.2c-1.2-17-8.7-31.6-21.6-42.4
		C209.1-905.7,192.5-911.4,174.9-911.4 M174.9-903.9c16.3,0,31,5.2,41.8,14.2c10.8,9,17.8,21.7,19,37.2l0,0H114.2l0,0
		c1.1-15.5,8.2-28.2,19-37.2C143.9-898.6,158.6-903.9,174.9-903.9"/>
	<path id="Fill-31_2_" class="st10" d="M231.3-787.1L231.3-787.1H118.5c-6.6,0-11.9,5.3-11.9,11.7c0,11.1,9.2,20.1,20.6,20.1h95.5
		c11.3,0,20.6-9,20.6-20.1C243.1-781.9,237.8-787.1,231.3-787.1 M231.2-779.6c2.4,0,4.3,1.9,4.3,4.2c0,6.9-5.8,12.5-13,12.6h-95.4
		c-7.2,0-13-5.6-13-12.6c0-2.3,1.9-4.2,4.3-4.2H231.2"/>
	<path id="Fill-33_2_" class="st10" d="M190.6-818.7l10.2,10.1c2.5,2.5,5.9,3.9,9.5,3.9c3.6,0,7-1.4,9.5-3.9l10.2-10.1
		c1-1,2.5-1.6,3.9-1.6s2.9,0.6,3.9,1.6l9,9c1.5,1.5,4,1.5,5.6,0c1.5-1.5,1.5-4,0-5.5l-9-9c-2.5-2.5-5.9-3.9-9.5-3.9s-7,1.4-9.5,3.9
		l-10.2,10.1c-1.1,1-2.4,1.6-3.9,1.6c-1.5,0-2.9-0.6-3.9-1.6l-10.2-10.1c-2.5-2.5-5.9-3.9-9.5-3.9c-3.6,0-7,1.4-9.5,3.9l-1.2,1.1
		l-7.9,7.8l-1.2,1.1c-1.1,1-2.4,1.6-3.9,1.6c-1.5,0-2.9-0.6-3.9-1.6l-10.2-10.1c-2.5-2.5-5.9-3.9-9.5-3.9c-3.6,0-7,1.4-9.5,3.9
		l-10.2,10.1c-1.1,1-2.4,1.6-3.9,1.6c-1.5,0-2.9-0.6-3.9-1.6l-9-9c-1.5-1.5-4-1.5-5.6,0c-0.8,0.8-1.2,1.8-1.2,2.8c0,1,0.4,2,1.2,2.8
		l9,9c2.5,2.5,5.9,3.9,9.5,3.9c3.6,0,7-1.4,9.5-3.9l10.2-10.1c1.1-1,2.4-1.6,3.9-1.6c1.5,0,2.9,0.6,3.9,1.6l10.2,10.1
		c2.5,2.5,5.9,3.9,9.5,3.9s7-1.4,9.5-3.9l1.2-1.1l9-9c1.1-1,2.4-1.6,3.9-1.6C186.7-820.4,189.1-820.3,190.6-818.7z"/>
</g>
<circle class="st5" cx="1463.4" cy="-774.6" r="20.6"/>
</svg>
